<mxfile host="Electron" modified="2024-04-04T13:21:52.223Z" agent="Mozilla/5.0 (Windows NT 10.0; Win64; x64) AppleWebKit/537.36 (KHTML, like Gecko) draw.io/24.1.0 Chrome/120.0.6099.109 Electron/28.1.0 Safari/537.36" etag="hI8RX_S-y0FzZXSYlwqd" version="24.1.0" type="device">
  <diagram name="Page-1" id="Q-yAtxKkLr_DfTsW5Ip2">
    <mxGraphModel dx="4468" dy="2572" grid="1" gridSize="10" guides="1" tooltips="1" connect="1" arrows="1" fold="1" page="1" pageScale="1" pageWidth="1600" pageHeight="900" math="0" shadow="0">
      <root>
        <mxCell id="0" />
        <mxCell id="1" parent="0" />
        <mxCell id="5rCYG5Pp4PT8a6XN0o9v-87" value="" style="group" parent="1" vertex="1" connectable="0">
          <mxGeometry x="-520" y="210" width="920" height="460" as="geometry" />
        </mxCell>
        <mxCell id="5rCYG5Pp4PT8a6XN0o9v-52" value="" style="rounded=0;whiteSpace=wrap;html=1;fillColor=none;" parent="5rCYG5Pp4PT8a6XN0o9v-87" vertex="1">
          <mxGeometry x="-20" width="920" height="460" as="geometry" />
        </mxCell>
        <mxCell id="E2oBNsR-X7e1rxYXSXUT-29" style="edgeStyle=orthogonalEdgeStyle;rounded=0;orthogonalLoop=1;jettySize=auto;html=1;entryX=0;entryY=0.5;entryDx=0;entryDy=0;exitX=0.75;exitY=1;exitDx=0;exitDy=0;jumpStyle=arc;" parent="5rCYG5Pp4PT8a6XN0o9v-87" source="5rCYG5Pp4PT8a6XN0o9v-3" target="E2oBNsR-X7e1rxYXSXUT-27" edge="1">
          <mxGeometry relative="1" as="geometry">
            <Array as="points">
              <mxPoint x="120" y="380" />
              <mxPoint x="450" y="380" />
              <mxPoint x="450" y="320" />
            </Array>
          </mxGeometry>
        </mxCell>
        <mxCell id="5rCYG5Pp4PT8a6XN0o9v-3" value="Unit" style="rounded=1;whiteSpace=wrap;html=1;fillColor=#fff2cc;strokeColor=#d6b656;" parent="5rCYG5Pp4PT8a6XN0o9v-87" vertex="1">
          <mxGeometry x="30" y="50" width="120" height="60" as="geometry" />
        </mxCell>
        <mxCell id="5rCYG5Pp4PT8a6XN0o9v-4" value="UnitProgression" style="rounded=1;whiteSpace=wrap;html=1;fillColor=#fff2cc;strokeColor=#d6b656;" parent="5rCYG5Pp4PT8a6XN0o9v-87" vertex="1">
          <mxGeometry x="230" y="50" width="120" height="60" as="geometry" />
        </mxCell>
        <mxCell id="5rCYG5Pp4PT8a6XN0o9v-78" style="edgeStyle=orthogonalEdgeStyle;rounded=0;orthogonalLoop=1;jettySize=auto;html=1;" parent="5rCYG5Pp4PT8a6XN0o9v-87" source="5rCYG5Pp4PT8a6XN0o9v-3" target="5rCYG5Pp4PT8a6XN0o9v-4" edge="1">
          <mxGeometry relative="1" as="geometry" />
        </mxCell>
        <mxCell id="5rCYG5Pp4PT8a6XN0o9v-13" value="UnitHealth" style="rounded=1;whiteSpace=wrap;html=1;fillColor=#fff2cc;strokeColor=#d6b656;" parent="5rCYG5Pp4PT8a6XN0o9v-87" vertex="1">
          <mxGeometry x="230" y="220" width="120" height="60" as="geometry" />
        </mxCell>
        <mxCell id="5rCYG5Pp4PT8a6XN0o9v-80" style="edgeStyle=orthogonalEdgeStyle;rounded=0;orthogonalLoop=1;jettySize=auto;html=1;entryX=0;entryY=0.5;entryDx=0;entryDy=0;" parent="5rCYG5Pp4PT8a6XN0o9v-87" source="5rCYG5Pp4PT8a6XN0o9v-3" target="5rCYG5Pp4PT8a6XN0o9v-13" edge="1">
          <mxGeometry relative="1" as="geometry" />
        </mxCell>
        <mxCell id="5rCYG5Pp4PT8a6XN0o9v-14" value="UnitAction" style="rounded=1;whiteSpace=wrap;html=1;fillColor=#fff2cc;strokeColor=#d6b656;" parent="5rCYG5Pp4PT8a6XN0o9v-87" vertex="1">
          <mxGeometry x="480" y="380" width="120" height="60" as="geometry" />
        </mxCell>
        <mxCell id="5rCYG5Pp4PT8a6XN0o9v-85" style="edgeStyle=orthogonalEdgeStyle;rounded=0;orthogonalLoop=1;jettySize=auto;html=1;entryX=0;entryY=0.5;entryDx=0;entryDy=0;exitX=0.5;exitY=1;exitDx=0;exitDy=0;" parent="5rCYG5Pp4PT8a6XN0o9v-87" source="5rCYG5Pp4PT8a6XN0o9v-3" target="5rCYG5Pp4PT8a6XN0o9v-14" edge="1">
          <mxGeometry relative="1" as="geometry" />
        </mxCell>
        <mxCell id="5rCYG5Pp4PT8a6XN0o9v-15" value="UnitData" style="rounded=1;whiteSpace=wrap;html=1;fillColor=#fff2cc;strokeColor=#d6b656;" parent="5rCYG5Pp4PT8a6XN0o9v-87" vertex="1">
          <mxGeometry x="230" y="310" width="120" height="60" as="geometry" />
        </mxCell>
        <mxCell id="5rCYG5Pp4PT8a6XN0o9v-84" style="edgeStyle=orthogonalEdgeStyle;rounded=0;orthogonalLoop=1;jettySize=auto;html=1;entryX=0;entryY=0.5;entryDx=0;entryDy=0;" parent="5rCYG5Pp4PT8a6XN0o9v-87" source="5rCYG5Pp4PT8a6XN0o9v-3" target="5rCYG5Pp4PT8a6XN0o9v-15" edge="1">
          <mxGeometry relative="1" as="geometry" />
        </mxCell>
        <mxCell id="E2oBNsR-X7e1rxYXSXUT-28" style="edgeStyle=orthogonalEdgeStyle;rounded=0;orthogonalLoop=1;jettySize=auto;html=1;exitX=1;exitY=0.5;exitDx=0;exitDy=0;" parent="5rCYG5Pp4PT8a6XN0o9v-87" source="5rCYG5Pp4PT8a6XN0o9v-16" target="E2oBNsR-X7e1rxYXSXUT-27" edge="1">
          <mxGeometry relative="1" as="geometry" />
        </mxCell>
        <mxCell id="5rCYG5Pp4PT8a6XN0o9v-16" value="UnitAnimator" style="rounded=1;whiteSpace=wrap;html=1;fillColor=#fff2cc;strokeColor=#d6b656;" parent="5rCYG5Pp4PT8a6XN0o9v-87" vertex="1">
          <mxGeometry x="660" y="380" width="120" height="60" as="geometry" />
        </mxCell>
        <mxCell id="5rCYG5Pp4PT8a6XN0o9v-74" style="edgeStyle=orthogonalEdgeStyle;rounded=0;orthogonalLoop=1;jettySize=auto;html=1;" parent="5rCYG5Pp4PT8a6XN0o9v-87" source="5rCYG5Pp4PT8a6XN0o9v-17" target="5rCYG5Pp4PT8a6XN0o9v-14" edge="1">
          <mxGeometry relative="1" as="geometry" />
        </mxCell>
        <mxCell id="5rCYG5Pp4PT8a6XN0o9v-81" style="edgeStyle=orthogonalEdgeStyle;rounded=0;orthogonalLoop=1;jettySize=auto;html=1;exitX=0.5;exitY=1;exitDx=0;exitDy=0;" parent="5rCYG5Pp4PT8a6XN0o9v-87" source="5rCYG5Pp4PT8a6XN0o9v-17" target="5rCYG5Pp4PT8a6XN0o9v-16" edge="1">
          <mxGeometry relative="1" as="geometry" />
        </mxCell>
        <mxCell id="dvQrfE8hFfSf3w3koCu_-1" style="edgeStyle=orthogonalEdgeStyle;rounded=0;orthogonalLoop=1;jettySize=auto;html=1;entryX=0.5;entryY=0;entryDx=0;entryDy=0;exitX=0.5;exitY=0;exitDx=0;exitDy=0;" parent="5rCYG5Pp4PT8a6XN0o9v-87" source="5rCYG5Pp4PT8a6XN0o9v-17" target="5rCYG5Pp4PT8a6XN0o9v-3" edge="1">
          <mxGeometry relative="1" as="geometry" />
        </mxCell>
        <mxCell id="F8GhyqX3egMXT2yHGgje-4" style="edgeStyle=orthogonalEdgeStyle;rounded=0;orthogonalLoop=1;jettySize=auto;html=1;entryX=1;entryY=0.5;entryDx=0;entryDy=0;" parent="5rCYG5Pp4PT8a6XN0o9v-87" source="5rCYG5Pp4PT8a6XN0o9v-17" target="F8GhyqX3egMXT2yHGgje-1" edge="1">
          <mxGeometry relative="1" as="geometry" />
        </mxCell>
        <mxCell id="5rCYG5Pp4PT8a6XN0o9v-17" value="UnitMovement" style="rounded=1;whiteSpace=wrap;html=1;fillColor=#fff2cc;strokeColor=#d6b656;" parent="5rCYG5Pp4PT8a6XN0o9v-87" vertex="1">
          <mxGeometry x="510" y="50" width="120" height="60" as="geometry" />
        </mxCell>
        <mxCell id="5rCYG5Pp4PT8a6XN0o9v-75" style="edgeStyle=orthogonalEdgeStyle;rounded=0;orthogonalLoop=1;jettySize=auto;html=1;entryX=0.5;entryY=0;entryDx=0;entryDy=0;exitX=0.5;exitY=1;exitDx=0;exitDy=0;" parent="5rCYG5Pp4PT8a6XN0o9v-87" source="5rCYG5Pp4PT8a6XN0o9v-18" target="5rCYG5Pp4PT8a6XN0o9v-14" edge="1">
          <mxGeometry relative="1" as="geometry" />
        </mxCell>
        <mxCell id="5rCYG5Pp4PT8a6XN0o9v-82" style="edgeStyle=orthogonalEdgeStyle;rounded=0;orthogonalLoop=1;jettySize=auto;html=1;entryX=0.5;entryY=0;entryDx=0;entryDy=0;" parent="5rCYG5Pp4PT8a6XN0o9v-87" source="5rCYG5Pp4PT8a6XN0o9v-18" target="5rCYG5Pp4PT8a6XN0o9v-16" edge="1">
          <mxGeometry relative="1" as="geometry" />
        </mxCell>
        <mxCell id="dvQrfE8hFfSf3w3koCu_-2" style="edgeStyle=orthogonalEdgeStyle;rounded=0;orthogonalLoop=1;jettySize=auto;html=1;entryX=0.5;entryY=0;entryDx=0;entryDy=0;" parent="5rCYG5Pp4PT8a6XN0o9v-87" source="5rCYG5Pp4PT8a6XN0o9v-18" target="5rCYG5Pp4PT8a6XN0o9v-3" edge="1">
          <mxGeometry relative="1" as="geometry">
            <Array as="points">
              <mxPoint x="690" y="30" />
              <mxPoint x="90" y="30" />
            </Array>
          </mxGeometry>
        </mxCell>
        <mxCell id="5rCYG5Pp4PT8a6XN0o9v-18" value="UnitAttack" style="rounded=1;whiteSpace=wrap;html=1;fillColor=#fff2cc;strokeColor=#d6b656;" parent="5rCYG5Pp4PT8a6XN0o9v-87" vertex="1">
          <mxGeometry x="640" y="50" width="120" height="60" as="geometry" />
        </mxCell>
        <mxCell id="5rCYG5Pp4PT8a6XN0o9v-77" style="edgeStyle=orthogonalEdgeStyle;rounded=0;orthogonalLoop=1;jettySize=auto;html=1;entryX=0.5;entryY=0;entryDx=0;entryDy=0;exitX=0.5;exitY=1;exitDx=0;exitDy=0;" parent="5rCYG5Pp4PT8a6XN0o9v-87" source="5rCYG5Pp4PT8a6XN0o9v-19" target="5rCYG5Pp4PT8a6XN0o9v-14" edge="1">
          <mxGeometry relative="1" as="geometry" />
        </mxCell>
        <mxCell id="5rCYG5Pp4PT8a6XN0o9v-86" style="edgeStyle=orthogonalEdgeStyle;rounded=0;orthogonalLoop=1;jettySize=auto;html=1;entryX=0.5;entryY=0;entryDx=0;entryDy=0;" parent="5rCYG5Pp4PT8a6XN0o9v-87" source="5rCYG5Pp4PT8a6XN0o9v-19" target="5rCYG5Pp4PT8a6XN0o9v-16" edge="1">
          <mxGeometry relative="1" as="geometry" />
        </mxCell>
        <mxCell id="dvQrfE8hFfSf3w3koCu_-3" style="edgeStyle=orthogonalEdgeStyle;rounded=0;orthogonalLoop=1;jettySize=auto;html=1;entryX=0.5;entryY=0;entryDx=0;entryDy=0;exitX=0.5;exitY=0;exitDx=0;exitDy=0;" parent="5rCYG5Pp4PT8a6XN0o9v-87" source="5rCYG5Pp4PT8a6XN0o9v-19" target="5rCYG5Pp4PT8a6XN0o9v-3" edge="1">
          <mxGeometry relative="1" as="geometry" />
        </mxCell>
        <mxCell id="5rCYG5Pp4PT8a6XN0o9v-19" value="UnitSpawner" style="rounded=1;whiteSpace=wrap;html=1;fillColor=#fff2cc;strokeColor=#d6b656;" parent="5rCYG5Pp4PT8a6XN0o9v-87" vertex="1">
          <mxGeometry x="770" y="50" width="120" height="60" as="geometry" />
        </mxCell>
        <mxCell id="5rCYG5Pp4PT8a6XN0o9v-34" value="UnitClass" style="rounded=1;whiteSpace=wrap;html=1;fillColor=#fff2cc;strokeColor=#d6b656;" parent="5rCYG5Pp4PT8a6XN0o9v-87" vertex="1">
          <mxGeometry x="230" y="130" width="120" height="60" as="geometry" />
        </mxCell>
        <mxCell id="5rCYG5Pp4PT8a6XN0o9v-79" style="edgeStyle=orthogonalEdgeStyle;rounded=0;orthogonalLoop=1;jettySize=auto;html=1;entryX=0;entryY=0.5;entryDx=0;entryDy=0;" parent="5rCYG5Pp4PT8a6XN0o9v-87" source="5rCYG5Pp4PT8a6XN0o9v-3" target="5rCYG5Pp4PT8a6XN0o9v-34" edge="1">
          <mxGeometry relative="1" as="geometry" />
        </mxCell>
        <mxCell id="5rCYG5Pp4PT8a6XN0o9v-47" value="&lt;font style=&quot;font-size: 16px;&quot;&gt;&lt;b&gt;&lt;u&gt;Unit&lt;/u&gt;&lt;/b&gt;&lt;/font&gt;" style="text;html=1;strokeColor=none;fillColor=none;align=center;verticalAlign=middle;whiteSpace=wrap;rounded=0;" parent="5rCYG5Pp4PT8a6XN0o9v-87" vertex="1">
          <mxGeometry width="60" height="30" as="geometry" />
        </mxCell>
        <mxCell id="E2oBNsR-X7e1rxYXSXUT-27" value="UnitShaderController" style="rounded=1;whiteSpace=wrap;html=1;fillColor=#fff2cc;strokeColor=#d6b656;" parent="5rCYG5Pp4PT8a6XN0o9v-87" vertex="1">
          <mxGeometry x="780" y="290" width="120" height="60" as="geometry" />
        </mxCell>
        <mxCell id="F8GhyqX3egMXT2yHGgje-3" style="edgeStyle=orthogonalEdgeStyle;rounded=0;orthogonalLoop=1;jettySize=auto;html=1;entryX=0.5;entryY=0;entryDx=0;entryDy=0;" parent="5rCYG5Pp4PT8a6XN0o9v-87" source="F8GhyqX3egMXT2yHGgje-1" target="5rCYG5Pp4PT8a6XN0o9v-14" edge="1">
          <mxGeometry relative="1" as="geometry">
            <Array as="points">
              <mxPoint x="460" y="240" />
              <mxPoint x="540" y="240" />
            </Array>
          </mxGeometry>
        </mxCell>
        <mxCell id="F8GhyqX3egMXT2yHGgje-1" value="UnitTrap" style="rounded=1;whiteSpace=wrap;html=1;fillColor=#fff2cc;strokeColor=#d6b656;" parent="5rCYG5Pp4PT8a6XN0o9v-87" vertex="1">
          <mxGeometry x="360" y="50" width="120" height="60" as="geometry" />
        </mxCell>
        <mxCell id="F8GhyqX3egMXT2yHGgje-2" style="edgeStyle=orthogonalEdgeStyle;rounded=0;orthogonalLoop=1;jettySize=auto;html=1;entryX=0.819;entryY=0.012;entryDx=0;entryDy=0;entryPerimeter=0;exitX=0.5;exitY=0;exitDx=0;exitDy=0;" parent="5rCYG5Pp4PT8a6XN0o9v-87" source="F8GhyqX3egMXT2yHGgje-1" target="5rCYG5Pp4PT8a6XN0o9v-3" edge="1">
          <mxGeometry relative="1" as="geometry" />
        </mxCell>
        <mxCell id="hMBRGdZrLUGP0uiqCrP--4" style="edgeStyle=orthogonalEdgeStyle;rounded=0;orthogonalLoop=1;jettySize=auto;html=1;entryX=0.25;entryY=0;entryDx=0;entryDy=0;exitX=0.25;exitY=1;exitDx=0;exitDy=0;" parent="1" source="5rCYG5Pp4PT8a6XN0o9v-1" target="OSTN7p2B52ogBujLfKif-1" edge="1">
          <mxGeometry relative="1" as="geometry" />
        </mxCell>
        <mxCell id="tIl48GBWqWobHh1Hrg0F-12" style="edgeStyle=orthogonalEdgeStyle;rounded=0;orthogonalLoop=1;jettySize=auto;html=1;entryX=0;entryY=0.5;entryDx=0;entryDy=0;" edge="1" parent="1" source="5rCYG5Pp4PT8a6XN0o9v-1" target="5rCYG5Pp4PT8a6XN0o9v-29">
          <mxGeometry relative="1" as="geometry">
            <Array as="points">
              <mxPoint x="650" y="-160" />
            </Array>
          </mxGeometry>
        </mxCell>
        <mxCell id="5rCYG5Pp4PT8a6XN0o9v-1" value="ActionHandler" style="rounded=1;whiteSpace=wrap;html=1;fillColor=#60a917;fontColor=#ffffff;strokeColor=#2D7600;" parent="1" vertex="1">
          <mxGeometry x="550" y="100" width="120" height="60" as="geometry" />
        </mxCell>
        <mxCell id="5rCYG5Pp4PT8a6XN0o9v-45" style="edgeStyle=orthogonalEdgeStyle;rounded=0;orthogonalLoop=1;jettySize=auto;html=1;" parent="1" source="5rCYG5Pp4PT8a6XN0o9v-2" target="5rCYG5Pp4PT8a6XN0o9v-1" edge="1">
          <mxGeometry relative="1" as="geometry" />
        </mxCell>
        <mxCell id="5rCYG5Pp4PT8a6XN0o9v-2" value="CameraController" style="rounded=1;whiteSpace=wrap;html=1;fillColor=#008a00;fontColor=#ffffff;strokeColor=#005700;" parent="1" vertex="1">
          <mxGeometry x="830" y="100" width="120" height="60" as="geometry" />
        </mxCell>
        <mxCell id="5rCYG5Pp4PT8a6XN0o9v-5" value="UnitManager" style="rounded=1;whiteSpace=wrap;html=1;fillColor=#dae8fc;strokeColor=#6c8ebf;" parent="1" vertex="1">
          <mxGeometry x="420" y="800" width="120" height="60" as="geometry" />
        </mxCell>
        <mxCell id="5rCYG5Pp4PT8a6XN0o9v-40" style="edgeStyle=orthogonalEdgeStyle;rounded=0;orthogonalLoop=1;jettySize=auto;html=1;entryX=0.5;entryY=0;entryDx=0;entryDy=0;exitX=0.5;exitY=1;exitDx=0;exitDy=0;jumpStyle=arc;" parent="1" source="5rCYG5Pp4PT8a6XN0o9v-1" target="5rCYG5Pp4PT8a6XN0o9v-5" edge="1">
          <mxGeometry relative="1" as="geometry" />
        </mxCell>
        <mxCell id="OSTN7p2B52ogBujLfKif-2" style="edgeStyle=orthogonalEdgeStyle;rounded=0;orthogonalLoop=1;jettySize=auto;html=1;exitX=0.5;exitY=1;exitDx=0;exitDy=0;" parent="1" source="5rCYG5Pp4PT8a6XN0o9v-6" target="5rCYG5Pp4PT8a6XN0o9v-52" edge="1">
          <mxGeometry relative="1" as="geometry" />
        </mxCell>
        <mxCell id="OSTN7p2B52ogBujLfKif-3" style="edgeStyle=orthogonalEdgeStyle;rounded=0;orthogonalLoop=1;jettySize=auto;html=1;entryX=1;entryY=0.5;entryDx=0;entryDy=0;" parent="1" source="5rCYG5Pp4PT8a6XN0o9v-6" target="5rCYG5Pp4PT8a6XN0o9v-5" edge="1">
          <mxGeometry relative="1" as="geometry" />
        </mxCell>
        <mxCell id="tIl48GBWqWobHh1Hrg0F-9" style="edgeStyle=orthogonalEdgeStyle;rounded=0;orthogonalLoop=1;jettySize=auto;html=1;entryX=0.75;entryY=1;entryDx=0;entryDy=0;exitX=0.25;exitY=0;exitDx=0;exitDy=0;jumpStyle=arc;" edge="1" parent="1" source="5rCYG5Pp4PT8a6XN0o9v-6" target="tIl48GBWqWobHh1Hrg0F-5">
          <mxGeometry relative="1" as="geometry">
            <Array as="points">
              <mxPoint x="620" y="760" />
              <mxPoint x="440" y="760" />
            </Array>
          </mxGeometry>
        </mxCell>
        <mxCell id="5rCYG5Pp4PT8a6XN0o9v-6" value="WaveManager" style="rounded=1;whiteSpace=wrap;html=1;fillColor=#dae8fc;strokeColor=#6c8ebf;" parent="1" vertex="1">
          <mxGeometry x="590" y="800" width="120" height="60" as="geometry" />
        </mxCell>
        <mxCell id="5rCYG5Pp4PT8a6XN0o9v-73" style="edgeStyle=orthogonalEdgeStyle;rounded=0;orthogonalLoop=1;jettySize=auto;html=1;entryX=0.5;entryY=0;entryDx=0;entryDy=0;jumpStyle=arc;exitX=0.5;exitY=1;exitDx=0;exitDy=0;" parent="1" source="5rCYG5Pp4PT8a6XN0o9v-2" target="5rCYG5Pp4PT8a6XN0o9v-6" edge="1">
          <mxGeometry relative="1" as="geometry">
            <Array as="points">
              <mxPoint x="890" y="310" />
              <mxPoint x="650" y="310" />
            </Array>
          </mxGeometry>
        </mxCell>
        <mxCell id="5rCYG5Pp4PT8a6XN0o9v-7" value="TurnManager" style="rounded=1;whiteSpace=wrap;html=1;fillColor=#dae8fc;strokeColor=#6c8ebf;" parent="1" vertex="1">
          <mxGeometry x="770" y="800" width="120" height="60" as="geometry" />
        </mxCell>
        <mxCell id="5rCYG5Pp4PT8a6XN0o9v-35" style="edgeStyle=orthogonalEdgeStyle;rounded=0;orthogonalLoop=1;jettySize=auto;html=1;entryX=0.5;entryY=0;entryDx=0;entryDy=0;exitX=0.5;exitY=1;exitDx=0;exitDy=0;jumpStyle=arc;" parent="1" source="5rCYG5Pp4PT8a6XN0o9v-1" target="5rCYG5Pp4PT8a6XN0o9v-7" edge="1">
          <mxGeometry relative="1" as="geometry" />
        </mxCell>
        <mxCell id="5rCYG5Pp4PT8a6XN0o9v-72" style="edgeStyle=orthogonalEdgeStyle;rounded=0;orthogonalLoop=1;jettySize=auto;html=1;" parent="1" source="5rCYG5Pp4PT8a6XN0o9v-6" target="5rCYG5Pp4PT8a6XN0o9v-7" edge="1">
          <mxGeometry relative="1" as="geometry" />
        </mxCell>
        <mxCell id="5rCYG5Pp4PT8a6XN0o9v-8" value="InputManager" style="rounded=1;whiteSpace=wrap;html=1;fillColor=#dae8fc;strokeColor=#6c8ebf;" parent="1" vertex="1">
          <mxGeometry x="940" y="800" width="120" height="60" as="geometry" />
        </mxCell>
        <mxCell id="5rCYG5Pp4PT8a6XN0o9v-37" style="edgeStyle=orthogonalEdgeStyle;rounded=0;orthogonalLoop=1;jettySize=auto;html=1;entryX=0.5;entryY=0;entryDx=0;entryDy=0;exitX=0.5;exitY=1;exitDx=0;exitDy=0;jumpStyle=arc;" parent="1" source="5rCYG5Pp4PT8a6XN0o9v-1" target="5rCYG5Pp4PT8a6XN0o9v-8" edge="1">
          <mxGeometry relative="1" as="geometry" />
        </mxCell>
        <mxCell id="5rCYG5Pp4PT8a6XN0o9v-9" value="Unity Input System" style="rounded=1;whiteSpace=wrap;html=1;" parent="1" vertex="1">
          <mxGeometry x="940" y="920" width="120" height="60" as="geometry" />
        </mxCell>
        <mxCell id="5rCYG5Pp4PT8a6XN0o9v-10" style="edgeStyle=orthogonalEdgeStyle;rounded=0;orthogonalLoop=1;jettySize=auto;html=1;" parent="1" source="5rCYG5Pp4PT8a6XN0o9v-8" target="5rCYG5Pp4PT8a6XN0o9v-9" edge="1">
          <mxGeometry relative="1" as="geometry" />
        </mxCell>
        <mxCell id="5rCYG5Pp4PT8a6XN0o9v-11" value="User Input" style="rounded=1;whiteSpace=wrap;html=1;" parent="1" vertex="1">
          <mxGeometry x="940" y="1030" width="120" height="60" as="geometry" />
        </mxCell>
        <mxCell id="5rCYG5Pp4PT8a6XN0o9v-12" style="edgeStyle=orthogonalEdgeStyle;rounded=0;orthogonalLoop=1;jettySize=auto;html=1;" parent="1" source="5rCYG5Pp4PT8a6XN0o9v-9" target="5rCYG5Pp4PT8a6XN0o9v-11" edge="1">
          <mxGeometry relative="1" as="geometry" />
        </mxCell>
        <mxCell id="5rCYG5Pp4PT8a6XN0o9v-90" style="edgeStyle=orthogonalEdgeStyle;rounded=0;orthogonalLoop=1;jettySize=auto;html=1;entryX=0.5;entryY=1;entryDx=0;entryDy=0;jumpStyle=arc;" parent="1" source="5rCYG5Pp4PT8a6XN0o9v-20" target="5rCYG5Pp4PT8a6XN0o9v-48" edge="1">
          <mxGeometry relative="1" as="geometry" />
        </mxCell>
        <mxCell id="OSTN7p2B52ogBujLfKif-11" style="edgeStyle=orthogonalEdgeStyle;rounded=0;orthogonalLoop=1;jettySize=auto;html=1;entryX=1;entryY=0.5;entryDx=0;entryDy=0;exitX=0.25;exitY=0;exitDx=0;exitDy=0;" parent="1" source="5rCYG5Pp4PT8a6XN0o9v-20" target="5rCYG5Pp4PT8a6XN0o9v-52" edge="1">
          <mxGeometry relative="1" as="geometry" />
        </mxCell>
        <mxCell id="5rCYG5Pp4PT8a6XN0o9v-20" value="GridManager" style="rounded=1;whiteSpace=wrap;html=1;fillColor=#dae8fc;strokeColor=#6c8ebf;" parent="1" vertex="1">
          <mxGeometry x="1120" y="800" width="120" height="60" as="geometry" />
        </mxCell>
        <mxCell id="5rCYG5Pp4PT8a6XN0o9v-39" style="edgeStyle=orthogonalEdgeStyle;rounded=0;orthogonalLoop=1;jettySize=auto;html=1;exitX=0.5;exitY=1;exitDx=0;exitDy=0;jumpStyle=arc;" parent="1" source="5rCYG5Pp4PT8a6XN0o9v-1" target="5rCYG5Pp4PT8a6XN0o9v-20" edge="1">
          <mxGeometry relative="1" as="geometry">
            <Array as="points">
              <mxPoint x="610" y="480" />
              <mxPoint x="1180" y="480" />
            </Array>
          </mxGeometry>
        </mxCell>
        <mxCell id="5rCYG5Pp4PT8a6XN0o9v-51" style="edgeStyle=orthogonalEdgeStyle;rounded=0;orthogonalLoop=1;jettySize=auto;html=1;entryX=0.75;entryY=1;entryDx=0;entryDy=0;" parent="1" source="5rCYG5Pp4PT8a6XN0o9v-1" target="5rCYG5Pp4PT8a6XN0o9v-27" edge="1">
          <mxGeometry relative="1" as="geometry" />
        </mxCell>
        <mxCell id="5rCYG5Pp4PT8a6XN0o9v-70" style="edgeStyle=orthogonalEdgeStyle;rounded=0;orthogonalLoop=1;jettySize=auto;html=1;entryX=0.75;entryY=0;entryDx=0;entryDy=0;" parent="1" source="5rCYG5Pp4PT8a6XN0o9v-1" target="5rCYG5Pp4PT8a6XN0o9v-52" edge="1">
          <mxGeometry relative="1" as="geometry" />
        </mxCell>
        <mxCell id="5rCYG5Pp4PT8a6XN0o9v-71" style="edgeStyle=orthogonalEdgeStyle;rounded=0;orthogonalLoop=1;jettySize=auto;html=1;entryX=0.5;entryY=1;entryDx=0;entryDy=0;" parent="1" source="5rCYG5Pp4PT8a6XN0o9v-5" target="5rCYG5Pp4PT8a6XN0o9v-52" edge="1">
          <mxGeometry relative="1" as="geometry" />
        </mxCell>
        <mxCell id="5rCYG5Pp4PT8a6XN0o9v-69" style="edgeStyle=orthogonalEdgeStyle;rounded=0;orthogonalLoop=1;jettySize=auto;html=1;entryX=0;entryY=0.224;entryDx=0;entryDy=0;exitX=0.75;exitY=1;exitDx=0;exitDy=0;jumpStyle=arc;entryPerimeter=0;" parent="1" source="5rCYG5Pp4PT8a6XN0o9v-1" target="5rCYG5Pp4PT8a6XN0o9v-48" edge="1">
          <mxGeometry relative="1" as="geometry" />
        </mxCell>
        <mxCell id="5rCYG5Pp4PT8a6XN0o9v-89" style="edgeStyle=orthogonalEdgeStyle;rounded=0;orthogonalLoop=1;jettySize=auto;html=1;" parent="1" source="5rCYG5Pp4PT8a6XN0o9v-49" target="5rCYG5Pp4PT8a6XN0o9v-52" edge="1">
          <mxGeometry relative="1" as="geometry" />
        </mxCell>
        <mxCell id="5rCYG5Pp4PT8a6XN0o9v-106" style="edgeStyle=orthogonalEdgeStyle;rounded=0;orthogonalLoop=1;jettySize=auto;html=1;entryX=0.5;entryY=1;entryDx=0;entryDy=0;jumpStyle=arc;" parent="1" source="5rCYG5Pp4PT8a6XN0o9v-91" target="5rCYG5Pp4PT8a6XN0o9v-20" edge="1">
          <mxGeometry relative="1" as="geometry" />
        </mxCell>
        <mxCell id="5rCYG5Pp4PT8a6XN0o9v-95" style="edgeStyle=orthogonalEdgeStyle;rounded=0;orthogonalLoop=1;jettySize=auto;html=1;entryX=0.5;entryY=1;entryDx=0;entryDy=0;jumpStyle=arc;" parent="1" source="5rCYG5Pp4PT8a6XN0o9v-92" target="5rCYG5Pp4PT8a6XN0o9v-7" edge="1">
          <mxGeometry relative="1" as="geometry" />
        </mxCell>
        <mxCell id="5rCYG5Pp4PT8a6XN0o9v-105" style="edgeStyle=orthogonalEdgeStyle;rounded=0;orthogonalLoop=1;jettySize=auto;html=1;entryX=0.25;entryY=0;entryDx=0;entryDy=0;jumpStyle=arc;exitX=0.75;exitY=1;exitDx=0;exitDy=0;" parent="1" source="5rCYG5Pp4PT8a6XN0o9v-52" target="5rCYG5Pp4PT8a6XN0o9v-91" edge="1">
          <mxGeometry relative="1" as="geometry">
            <Array as="points">
              <mxPoint x="150" y="750" />
              <mxPoint x="370" y="750" />
            </Array>
          </mxGeometry>
        </mxCell>
        <mxCell id="E2oBNsR-X7e1rxYXSXUT-26" value="" style="group" parent="1" vertex="1" connectable="0">
          <mxGeometry x="-330" y="950" width="820" height="390" as="geometry" />
        </mxCell>
        <mxCell id="5rCYG5Pp4PT8a6XN0o9v-96" value="" style="rounded=0;whiteSpace=wrap;html=1;fillColor=none;container=0;" parent="E2oBNsR-X7e1rxYXSXUT-26" vertex="1">
          <mxGeometry width="820" height="390" as="geometry" />
        </mxCell>
        <mxCell id="E2oBNsR-X7e1rxYXSXUT-13" value="WaitingForTurnState" style="rounded=1;whiteSpace=wrap;html=1;fillColor=#ffe6cc;strokeColor=#d79b00;container=0;" parent="E2oBNsR-X7e1rxYXSXUT-26" vertex="1">
          <mxGeometry x="200" y="165" width="120" height="60" as="geometry" />
        </mxCell>
        <mxCell id="E2oBNsR-X7e1rxYXSXUT-14" style="edgeStyle=orthogonalEdgeStyle;rounded=0;orthogonalLoop=1;jettySize=auto;html=1;" parent="E2oBNsR-X7e1rxYXSXUT-26" source="E2oBNsR-X7e1rxYXSXUT-10" target="E2oBNsR-X7e1rxYXSXUT-13" edge="1">
          <mxGeometry relative="1" as="geometry" />
        </mxCell>
        <mxCell id="E2oBNsR-X7e1rxYXSXUT-16" value="FindingActionState" style="rounded=1;whiteSpace=wrap;html=1;fillColor=#ffe6cc;strokeColor=#d79b00;container=0;" parent="E2oBNsR-X7e1rxYXSXUT-26" vertex="1">
          <mxGeometry x="200" y="320" width="120" height="60" as="geometry" />
        </mxCell>
        <mxCell id="E2oBNsR-X7e1rxYXSXUT-18" style="edgeStyle=orthogonalEdgeStyle;rounded=0;orthogonalLoop=1;jettySize=auto;html=1;entryX=1;entryY=0.5;entryDx=0;entryDy=0;exitX=0.5;exitY=1;exitDx=0;exitDy=0;" parent="E2oBNsR-X7e1rxYXSXUT-26" source="E2oBNsR-X7e1rxYXSXUT-10" target="E2oBNsR-X7e1rxYXSXUT-16" edge="1">
          <mxGeometry relative="1" as="geometry" />
        </mxCell>
        <mxCell id="E2oBNsR-X7e1rxYXSXUT-19" value="EnemyState" style="rounded=1;whiteSpace=wrap;html=1;fillColor=#ffe6cc;strokeColor=#d79b00;container=0;" parent="E2oBNsR-X7e1rxYXSXUT-26" vertex="1">
          <mxGeometry x="30" y="240" width="120" height="60" as="geometry" />
        </mxCell>
        <mxCell id="E2oBNsR-X7e1rxYXSXUT-21" style="edgeStyle=orthogonalEdgeStyle;rounded=0;orthogonalLoop=1;jettySize=auto;html=1;entryX=0.5;entryY=0;entryDx=0;entryDy=0;" parent="E2oBNsR-X7e1rxYXSXUT-26" source="E2oBNsR-X7e1rxYXSXUT-13" target="E2oBNsR-X7e1rxYXSXUT-19" edge="1">
          <mxGeometry relative="1" as="geometry" />
        </mxCell>
        <mxCell id="E2oBNsR-X7e1rxYXSXUT-22" style="edgeStyle=orthogonalEdgeStyle;rounded=0;orthogonalLoop=1;jettySize=auto;html=1;entryX=0.5;entryY=1;entryDx=0;entryDy=0;" parent="E2oBNsR-X7e1rxYXSXUT-26" source="E2oBNsR-X7e1rxYXSXUT-16" target="E2oBNsR-X7e1rxYXSXUT-19" edge="1">
          <mxGeometry relative="1" as="geometry" />
        </mxCell>
        <mxCell id="E2oBNsR-X7e1rxYXSXUT-20" style="edgeStyle=orthogonalEdgeStyle;rounded=0;orthogonalLoop=1;jettySize=auto;html=1;" parent="E2oBNsR-X7e1rxYXSXUT-26" source="E2oBNsR-X7e1rxYXSXUT-15" target="E2oBNsR-X7e1rxYXSXUT-19" edge="1">
          <mxGeometry relative="1" as="geometry" />
        </mxCell>
        <mxCell id="E2oBNsR-X7e1rxYXSXUT-23" style="edgeStyle=orthogonalEdgeStyle;rounded=0;orthogonalLoop=1;jettySize=auto;html=1;entryX=0.25;entryY=0;entryDx=0;entryDy=0;exitX=0.25;exitY=0;exitDx=0;exitDy=0;" parent="E2oBNsR-X7e1rxYXSXUT-26" source="E2oBNsR-X7e1rxYXSXUT-10" target="E2oBNsR-X7e1rxYXSXUT-19" edge="1">
          <mxGeometry relative="1" as="geometry" />
        </mxCell>
        <mxCell id="5rCYG5Pp4PT8a6XN0o9v-91" value="Pathfinding" style="rounded=1;whiteSpace=wrap;html=1;fillColor=#e1d5e7;strokeColor=#9673a6;container=0;" parent="E2oBNsR-X7e1rxYXSXUT-26" vertex="1">
          <mxGeometry x="670" y="280" width="120" height="60" as="geometry" />
        </mxCell>
        <mxCell id="5rCYG5Pp4PT8a6XN0o9v-92" value="EnemyAI" style="rounded=1;whiteSpace=wrap;html=1;container=0;fillColor=#ffe6cc;strokeColor=#d79b00;" parent="E2oBNsR-X7e1rxYXSXUT-26" vertex="1">
          <mxGeometry x="540" y="50" width="120" height="60" as="geometry" />
        </mxCell>
        <mxCell id="5rCYG5Pp4PT8a6XN0o9v-93" value="EnemyAIAction" style="rounded=1;whiteSpace=wrap;html=1;container=0;fillColor=#ffe6cc;strokeColor=#d79b00;" parent="E2oBNsR-X7e1rxYXSXUT-26" vertex="1">
          <mxGeometry x="370" y="50" width="120" height="60" as="geometry" />
        </mxCell>
        <mxCell id="5rCYG5Pp4PT8a6XN0o9v-98" value="PathNode" style="rounded=1;whiteSpace=wrap;html=1;fillColor=#e1d5e7;strokeColor=#9673a6;container=0;" parent="E2oBNsR-X7e1rxYXSXUT-26" vertex="1">
          <mxGeometry x="470" y="280" width="120" height="60" as="geometry" />
        </mxCell>
        <mxCell id="5rCYG5Pp4PT8a6XN0o9v-94" style="edgeStyle=orthogonalEdgeStyle;rounded=0;orthogonalLoop=1;jettySize=auto;html=1;entryX=1;entryY=0.5;entryDx=0;entryDy=0;jumpStyle=arc;" parent="E2oBNsR-X7e1rxYXSXUT-26" source="5rCYG5Pp4PT8a6XN0o9v-92" target="5rCYG5Pp4PT8a6XN0o9v-93" edge="1">
          <mxGeometry relative="1" as="geometry" />
        </mxCell>
        <mxCell id="5rCYG5Pp4PT8a6XN0o9v-99" style="edgeStyle=orthogonalEdgeStyle;rounded=0;orthogonalLoop=1;jettySize=auto;html=1;entryX=1;entryY=0.5;entryDx=0;entryDy=0;jumpStyle=arc;" parent="E2oBNsR-X7e1rxYXSXUT-26" source="5rCYG5Pp4PT8a6XN0o9v-91" target="5rCYG5Pp4PT8a6XN0o9v-98" edge="1">
          <mxGeometry relative="1" as="geometry" />
        </mxCell>
        <mxCell id="E2oBNsR-X7e1rxYXSXUT-12" style="edgeStyle=orthogonalEdgeStyle;rounded=0;orthogonalLoop=1;jettySize=auto;html=1;" parent="E2oBNsR-X7e1rxYXSXUT-26" source="E2oBNsR-X7e1rxYXSXUT-10" target="5rCYG5Pp4PT8a6XN0o9v-93" edge="1">
          <mxGeometry relative="1" as="geometry" />
        </mxCell>
        <mxCell id="E2oBNsR-X7e1rxYXSXUT-10" value="EnemyStatePattern" style="rounded=1;whiteSpace=wrap;html=1;fillColor=#ffe6cc;strokeColor=#d79b00;container=0;" parent="E2oBNsR-X7e1rxYXSXUT-26" vertex="1">
          <mxGeometry x="370" y="165" width="120" height="60" as="geometry" />
        </mxCell>
        <mxCell id="E2oBNsR-X7e1rxYXSXUT-11" style="edgeStyle=orthogonalEdgeStyle;rounded=0;orthogonalLoop=1;jettySize=auto;html=1;entryX=1;entryY=0.5;entryDx=0;entryDy=0;exitX=0.5;exitY=1;exitDx=0;exitDy=0;" parent="E2oBNsR-X7e1rxYXSXUT-26" source="5rCYG5Pp4PT8a6XN0o9v-92" target="E2oBNsR-X7e1rxYXSXUT-10" edge="1">
          <mxGeometry relative="1" as="geometry" />
        </mxCell>
        <mxCell id="E2oBNsR-X7e1rxYXSXUT-25" value="" style="edgeStyle=orthogonalEdgeStyle;rounded=0;orthogonalLoop=1;jettySize=auto;html=1;" parent="E2oBNsR-X7e1rxYXSXUT-26" source="E2oBNsR-X7e1rxYXSXUT-15" target="E2oBNsR-X7e1rxYXSXUT-13" edge="1">
          <mxGeometry relative="1" as="geometry" />
        </mxCell>
        <mxCell id="E2oBNsR-X7e1rxYXSXUT-15" value="TakingActionState" style="rounded=1;whiteSpace=wrap;html=1;fillColor=#ffe6cc;strokeColor=#d79b00;container=0;" parent="E2oBNsR-X7e1rxYXSXUT-26" vertex="1">
          <mxGeometry x="200" y="240" width="120" height="60" as="geometry" />
        </mxCell>
        <mxCell id="E2oBNsR-X7e1rxYXSXUT-17" style="edgeStyle=orthogonalEdgeStyle;rounded=0;orthogonalLoop=1;jettySize=auto;html=1;entryX=1;entryY=0.5;entryDx=0;entryDy=0;exitX=0.25;exitY=1;exitDx=0;exitDy=0;" parent="E2oBNsR-X7e1rxYXSXUT-26" source="E2oBNsR-X7e1rxYXSXUT-10" target="E2oBNsR-X7e1rxYXSXUT-15" edge="1">
          <mxGeometry relative="1" as="geometry" />
        </mxCell>
        <mxCell id="5rCYG5Pp4PT8a6XN0o9v-97" value="&lt;u&gt;&lt;b&gt;&lt;font style=&quot;font-size: 16px;&quot;&gt;AI&lt;/font&gt;&lt;/b&gt;&lt;/u&gt;" style="text;html=1;strokeColor=none;fillColor=none;align=center;verticalAlign=middle;whiteSpace=wrap;rounded=0;container=0;" parent="E2oBNsR-X7e1rxYXSXUT-26" vertex="1">
          <mxGeometry width="60" height="30" as="geometry" />
        </mxCell>
        <mxCell id="E2oBNsR-X7e1rxYXSXUT-31" value="" style="group" parent="1" vertex="1" connectable="0">
          <mxGeometry x="410" y="-450" width="400" height="420" as="geometry" />
        </mxCell>
        <mxCell id="5rCYG5Pp4PT8a6XN0o9v-49" value="" style="rounded=0;whiteSpace=wrap;html=1;fillColor=none;" parent="E2oBNsR-X7e1rxYXSXUT-31" vertex="1">
          <mxGeometry x="-140" width="540" height="420" as="geometry" />
        </mxCell>
        <mxCell id="5rCYG5Pp4PT8a6XN0o9v-26" value="HealthBar" style="rounded=1;whiteSpace=wrap;html=1;fillColor=#d5e8d4;strokeColor=#82b366;" parent="E2oBNsR-X7e1rxYXSXUT-31" vertex="1">
          <mxGeometry x="90" y="80" width="120" height="60" as="geometry" />
        </mxCell>
        <mxCell id="5rCYG5Pp4PT8a6XN0o9v-27" value="BuildingButton" style="rounded=1;whiteSpace=wrap;html=1;fillColor=#d5e8d4;strokeColor=#82b366;" parent="E2oBNsR-X7e1rxYXSXUT-31" vertex="1">
          <mxGeometry x="90" y="340" width="120" height="60" as="geometry" />
        </mxCell>
        <mxCell id="5rCYG5Pp4PT8a6XN0o9v-28" value="CancelButton" style="rounded=1;whiteSpace=wrap;html=1;fillColor=#d5e8d4;strokeColor=#82b366;" parent="E2oBNsR-X7e1rxYXSXUT-31" vertex="1">
          <mxGeometry x="90" y="170" width="120" height="60" as="geometry" />
        </mxCell>
        <mxCell id="5rCYG5Pp4PT8a6XN0o9v-29" value="BuildingMenu" style="rounded=1;whiteSpace=wrap;html=1;fillColor=#d5e8d4;strokeColor=#82b366;" parent="E2oBNsR-X7e1rxYXSXUT-31" vertex="1">
          <mxGeometry x="260" y="260" width="120" height="60" as="geometry" />
        </mxCell>
        <mxCell id="5rCYG5Pp4PT8a6XN0o9v-30" value="CurrencyUI" style="rounded=1;whiteSpace=wrap;html=1;fillColor=#d5e8d4;strokeColor=#82b366;" parent="E2oBNsR-X7e1rxYXSXUT-31" vertex="1">
          <mxGeometry x="90" y="260" width="120" height="60" as="geometry" />
        </mxCell>
        <mxCell id="5rCYG5Pp4PT8a6XN0o9v-31" value="GridObjectUI" style="rounded=1;whiteSpace=wrap;html=1;fillColor=#d5e8d4;strokeColor=#82b366;" parent="E2oBNsR-X7e1rxYXSXUT-31" vertex="1">
          <mxGeometry x="260" y="80" width="120" height="60" as="geometry" />
        </mxCell>
        <mxCell id="5rCYG5Pp4PT8a6XN0o9v-32" value="StatusUpdateUI" style="rounded=1;whiteSpace=wrap;html=1;fillColor=#d5e8d4;strokeColor=#82b366;" parent="E2oBNsR-X7e1rxYXSXUT-31" vertex="1">
          <mxGeometry x="-80" y="10" width="120" height="60" as="geometry" />
        </mxCell>
        <mxCell id="E2oBNsR-X7e1rxYXSXUT-30" value="FastForwardButton" style="rounded=1;whiteSpace=wrap;html=1;fillColor=#d5e8d4;strokeColor=#82b366;" parent="E2oBNsR-X7e1rxYXSXUT-31" vertex="1">
          <mxGeometry x="260" y="340" width="120" height="60" as="geometry" />
        </mxCell>
        <mxCell id="8GIG4aWdincUIpCO8D-R-3" value="MainMenu" style="rounded=1;whiteSpace=wrap;html=1;fillColor=#d5e8d4;strokeColor=#82b366;" parent="E2oBNsR-X7e1rxYXSXUT-31" vertex="1">
          <mxGeometry x="260" y="10" width="120" height="60" as="geometry" />
        </mxCell>
        <mxCell id="8GIG4aWdincUIpCO8D-R-4" value="SaveButton" style="rounded=1;whiteSpace=wrap;html=1;fillColor=#d5e8d4;strokeColor=#82b366;" parent="E2oBNsR-X7e1rxYXSXUT-31" vertex="1">
          <mxGeometry x="90" y="10" width="120" height="60" as="geometry" />
        </mxCell>
        <mxCell id="EJfHphO5dhojPKtpZyIT-1" value="NextWaveUI" style="rounded=1;whiteSpace=wrap;html=1;fillColor=#d5e8d4;strokeColor=#82b366;" parent="E2oBNsR-X7e1rxYXSXUT-31" vertex="1">
          <mxGeometry x="-80" y="340" width="120" height="60" as="geometry" />
        </mxCell>
        <mxCell id="hMBRGdZrLUGP0uiqCrP--5" value="ScoreUI" style="rounded=1;whiteSpace=wrap;html=1;fillColor=#d5e8d4;strokeColor=#82b366;" parent="E2oBNsR-X7e1rxYXSXUT-31" vertex="1">
          <mxGeometry x="-80" y="260" width="120" height="60" as="geometry" />
        </mxCell>
        <mxCell id="hMBRGdZrLUGP0uiqCrP--6" value="LetterBoxing" style="rounded=1;whiteSpace=wrap;html=1;fillColor=#d5e8d4;strokeColor=#82b366;" parent="E2oBNsR-X7e1rxYXSXUT-31" vertex="1">
          <mxGeometry x="-80" y="170" width="120" height="60" as="geometry" />
        </mxCell>
        <mxCell id="hMBRGdZrLUGP0uiqCrP--7" value="MarbleGravityWell" style="rounded=1;whiteSpace=wrap;html=1;fillColor=#d5e8d4;strokeColor=#82b366;" parent="E2oBNsR-X7e1rxYXSXUT-31" vertex="1">
          <mxGeometry x="-80" y="80" width="120" height="60" as="geometry" />
        </mxCell>
        <mxCell id="E2oBNsR-X7e1rxYXSXUT-32" style="edgeStyle=orthogonalEdgeStyle;rounded=0;orthogonalLoop=1;jettySize=auto;html=1;entryX=0.25;entryY=0;entryDx=0;entryDy=0;jumpStyle=arc;" parent="1" source="E2oBNsR-X7e1rxYXSXUT-30" target="5rCYG5Pp4PT8a6XN0o9v-7" edge="1">
          <mxGeometry relative="1" as="geometry">
            <Array as="points">
              <mxPoint x="730" y="30" />
              <mxPoint x="800" y="30" />
            </Array>
          </mxGeometry>
        </mxCell>
        <mxCell id="M5sFaCqMI3LGULJpn6zM-2" value="" style="group" parent="1" vertex="1" connectable="0">
          <mxGeometry x="-1530" y="210" width="920" height="460" as="geometry" />
        </mxCell>
        <mxCell id="M5sFaCqMI3LGULJpn6zM-3" value="" style="rounded=0;whiteSpace=wrap;html=1;fillColor=none;" parent="M5sFaCqMI3LGULJpn6zM-2" vertex="1">
          <mxGeometry width="920" height="460" as="geometry" />
        </mxCell>
        <mxCell id="M5sFaCqMI3LGULJpn6zM-27" value="&lt;font style=&quot;font-size: 16px;&quot;&gt;&lt;b&gt;&lt;u&gt;Save System&lt;/u&gt;&lt;/b&gt;&lt;/font&gt;" style="text;html=1;strokeColor=none;fillColor=none;align=center;verticalAlign=middle;whiteSpace=wrap;rounded=0;" parent="M5sFaCqMI3LGULJpn6zM-2" vertex="1">
          <mxGeometry width="150" height="30" as="geometry" />
        </mxCell>
        <mxCell id="M5sFaCqMI3LGULJpn6zM-52" style="edgeStyle=orthogonalEdgeStyle;rounded=0;orthogonalLoop=1;jettySize=auto;html=1;" parent="M5sFaCqMI3LGULJpn6zM-2" source="M5sFaCqMI3LGULJpn6zM-40" target="M5sFaCqMI3LGULJpn6zM-41" edge="1">
          <mxGeometry relative="1" as="geometry" />
        </mxCell>
        <mxCell id="M5sFaCqMI3LGULJpn6zM-53" style="edgeStyle=orthogonalEdgeStyle;rounded=0;orthogonalLoop=1;jettySize=auto;html=1;entryX=0;entryY=0.5;entryDx=0;entryDy=0;exitX=0.5;exitY=1;exitDx=0;exitDy=0;" parent="M5sFaCqMI3LGULJpn6zM-2" source="M5sFaCqMI3LGULJpn6zM-40" target="M5sFaCqMI3LGULJpn6zM-42" edge="1">
          <mxGeometry relative="1" as="geometry" />
        </mxCell>
        <mxCell id="M5sFaCqMI3LGULJpn6zM-40" value="SaveManager" style="rounded=1;whiteSpace=wrap;html=1;fillColor=#dae8fc;strokeColor=#6c8ebf;" parent="M5sFaCqMI3LGULJpn6zM-2" vertex="1">
          <mxGeometry x="20" y="60" width="120" height="60" as="geometry" />
        </mxCell>
        <mxCell id="M5sFaCqMI3LGULJpn6zM-41" value="SaveFile" style="rounded=1;whiteSpace=wrap;html=1;fillColor=#ffe6cc;strokeColor=#d79b00;" parent="M5sFaCqMI3LGULJpn6zM-2" vertex="1">
          <mxGeometry x="170" y="60" width="120" height="60" as="geometry" />
        </mxCell>
        <mxCell id="M5sFaCqMI3LGULJpn6zM-54" style="edgeStyle=orthogonalEdgeStyle;rounded=0;orthogonalLoop=1;jettySize=auto;html=1;exitX=0.5;exitY=1;exitDx=0;exitDy=0;" parent="M5sFaCqMI3LGULJpn6zM-2" source="M5sFaCqMI3LGULJpn6zM-42" target="M5sFaCqMI3LGULJpn6zM-50" edge="1">
          <mxGeometry relative="1" as="geometry" />
        </mxCell>
        <mxCell id="k2wFrJ3f_RFzbmOJsM-f-2" style="edgeStyle=orthogonalEdgeStyle;rounded=0;orthogonalLoop=1;jettySize=auto;html=1;entryX=0;entryY=0.5;entryDx=0;entryDy=0;exitX=0.5;exitY=1;exitDx=0;exitDy=0;" parent="M5sFaCqMI3LGULJpn6zM-2" source="M5sFaCqMI3LGULJpn6zM-42" target="k2wFrJ3f_RFzbmOJsM-f-1" edge="1">
          <mxGeometry relative="1" as="geometry" />
        </mxCell>
        <mxCell id="k2wFrJ3f_RFzbmOJsM-f-4" style="edgeStyle=orthogonalEdgeStyle;rounded=0;orthogonalLoop=1;jettySize=auto;html=1;entryX=0;entryY=0.5;entryDx=0;entryDy=0;exitX=0.5;exitY=1;exitDx=0;exitDy=0;" parent="M5sFaCqMI3LGULJpn6zM-2" source="M5sFaCqMI3LGULJpn6zM-42" target="k2wFrJ3f_RFzbmOJsM-f-3" edge="1">
          <mxGeometry relative="1" as="geometry" />
        </mxCell>
        <mxCell id="M5sFaCqMI3LGULJpn6zM-42" value="ISaveInterface&amp;lt;T&amp;gt;" style="rounded=1;whiteSpace=wrap;html=1;fillColor=#ffe6cc;strokeColor=#d79b00;" parent="M5sFaCqMI3LGULJpn6zM-2" vertex="1">
          <mxGeometry x="170" y="140" width="120" height="60" as="geometry" />
        </mxCell>
        <mxCell id="M5sFaCqMI3LGULJpn6zM-50" value="SaveUnitData" style="rounded=1;whiteSpace=wrap;html=1;fillColor=#ffe6cc;strokeColor=#d79b00;" parent="M5sFaCqMI3LGULJpn6zM-2" vertex="1">
          <mxGeometry x="370" y="200" width="120" height="60" as="geometry" />
        </mxCell>
        <mxCell id="k2wFrJ3f_RFzbmOJsM-f-1" value="SaveCurrencyBankData" style="rounded=1;whiteSpace=wrap;html=1;fillColor=#ffe6cc;strokeColor=#d79b00;" parent="M5sFaCqMI3LGULJpn6zM-2" vertex="1">
          <mxGeometry x="370" y="300" width="120" height="60" as="geometry" />
        </mxCell>
        <mxCell id="k2wFrJ3f_RFzbmOJsM-f-3" value="SaveTurnManagerData" style="rounded=1;whiteSpace=wrap;html=1;fillColor=#ffe6cc;strokeColor=#d79b00;" parent="M5sFaCqMI3LGULJpn6zM-2" vertex="1">
          <mxGeometry x="370" y="380" width="120" height="60" as="geometry" />
        </mxCell>
        <mxCell id="8GIG4aWdincUIpCO8D-R-6" style="edgeStyle=orthogonalEdgeStyle;rounded=0;orthogonalLoop=1;jettySize=auto;html=1;entryX=1;entryY=0.5;entryDx=0;entryDy=0;exitX=0.5;exitY=0;exitDx=0;exitDy=0;" parent="1" source="8GIG4aWdincUIpCO8D-R-1" target="5rCYG5Pp4PT8a6XN0o9v-49" edge="1">
          <mxGeometry relative="1" as="geometry" />
        </mxCell>
        <mxCell id="tIl48GBWqWobHh1Hrg0F-20" style="edgeStyle=orthogonalEdgeStyle;rounded=0;orthogonalLoop=1;jettySize=auto;html=1;entryX=0.5;entryY=0;entryDx=0;entryDy=0;" edge="1" parent="1" source="8GIG4aWdincUIpCO8D-R-1" target="5rCYG5Pp4PT8a6XN0o9v-48">
          <mxGeometry relative="1" as="geometry" />
        </mxCell>
        <mxCell id="tIl48GBWqWobHh1Hrg0F-22" style="edgeStyle=orthogonalEdgeStyle;rounded=0;orthogonalLoop=1;jettySize=auto;html=1;entryX=0.75;entryY=0;entryDx=0;entryDy=0;exitX=0.5;exitY=1;exitDx=0;exitDy=0;jumpStyle=arc;" edge="1" parent="1" source="8GIG4aWdincUIpCO8D-R-1" target="5rCYG5Pp4PT8a6XN0o9v-6">
          <mxGeometry relative="1" as="geometry">
            <Array as="points">
              <mxPoint x="1100" y="690" />
              <mxPoint x="680" y="690" />
            </Array>
          </mxGeometry>
        </mxCell>
        <mxCell id="tIl48GBWqWobHh1Hrg0F-23" style="edgeStyle=orthogonalEdgeStyle;rounded=0;orthogonalLoop=1;jettySize=auto;html=1;entryX=0.75;entryY=0;entryDx=0;entryDy=0;exitX=0.25;exitY=1;exitDx=0;exitDy=0;jumpStyle=arc;" edge="1" parent="1" source="8GIG4aWdincUIpCO8D-R-1" target="M5sFaCqMI3LGULJpn6zM-3">
          <mxGeometry relative="1" as="geometry" />
        </mxCell>
        <mxCell id="8GIG4aWdincUIpCO8D-R-1" value="ApplicationManager&lt;div&gt;(Global State)&lt;/div&gt;" style="rounded=1;whiteSpace=wrap;html=1;fillColor=#e51400;fontColor=#ffffff;strokeColor=#B20000;" parent="1" vertex="1">
          <mxGeometry x="1040" y="100" width="120" height="60" as="geometry" />
        </mxCell>
        <mxCell id="5rCYG5Pp4PT8a6XN0o9v-42" value="&lt;u&gt;&lt;b&gt;&lt;font style=&quot;font-size: 16px;&quot;&gt;UI&lt;/font&gt;&lt;/b&gt;&lt;/u&gt;" style="text;html=1;strokeColor=none;fillColor=none;align=center;verticalAlign=middle;whiteSpace=wrap;rounded=0;" parent="1" vertex="1">
          <mxGeometry x="270" y="-450" width="60" height="30" as="geometry" />
        </mxCell>
        <mxCell id="hMBRGdZrLUGP0uiqCrP--1" style="edgeStyle=orthogonalEdgeStyle;rounded=0;orthogonalLoop=1;jettySize=auto;html=1;entryX=1;entryY=0.75;entryDx=0;entryDy=0;jumpStyle=arc;" parent="1" source="OSTN7p2B52ogBujLfKif-1" target="5rCYG5Pp4PT8a6XN0o9v-52" edge="1">
          <mxGeometry relative="1" as="geometry">
            <Array as="points">
              <mxPoint x="450" y="690" />
              <mxPoint x="450" y="555" />
            </Array>
          </mxGeometry>
        </mxCell>
        <mxCell id="tIl48GBWqWobHh1Hrg0F-15" style="edgeStyle=orthogonalEdgeStyle;rounded=0;orthogonalLoop=1;jettySize=auto;html=1;entryX=0.5;entryY=1;entryDx=0;entryDy=0;exitX=0.5;exitY=0;exitDx=0;exitDy=0;jumpStyle=arc;" edge="1" parent="1" source="OSTN7p2B52ogBujLfKif-1" target="tIl48GBWqWobHh1Hrg0F-13">
          <mxGeometry relative="1" as="geometry" />
        </mxCell>
        <mxCell id="OSTN7p2B52ogBujLfKif-1" value="GameplayManager" style="rounded=1;whiteSpace=wrap;html=1;fillColor=#dae8fc;strokeColor=#6c8ebf;" parent="1" vertex="1">
          <mxGeometry x="500" y="660" width="120" height="60" as="geometry" />
        </mxCell>
        <mxCell id="OSTN7p2B52ogBujLfKif-5" style="edgeStyle=orthogonalEdgeStyle;rounded=0;orthogonalLoop=1;jettySize=auto;html=1;entryX=0.25;entryY=1;entryDx=0;entryDy=0;exitX=0.5;exitY=1;exitDx=0;exitDy=0;jumpStyle=arc;" parent="1" source="5rCYG5Pp4PT8a6XN0o9v-5" target="5rCYG5Pp4PT8a6XN0o9v-20" edge="1">
          <mxGeometry relative="1" as="geometry">
            <Array as="points">
              <mxPoint x="480" y="900" />
              <mxPoint x="1150" y="900" />
            </Array>
          </mxGeometry>
        </mxCell>
        <mxCell id="OSTN7p2B52ogBujLfKif-8" style="edgeStyle=orthogonalEdgeStyle;rounded=0;orthogonalLoop=1;jettySize=auto;html=1;entryX=0;entryY=0.5;entryDx=0;entryDy=0;" parent="1" source="M5sFaCqMI3LGULJpn6zM-3" target="5rCYG5Pp4PT8a6XN0o9v-52" edge="1">
          <mxGeometry relative="1" as="geometry" />
        </mxCell>
        <mxCell id="OSTN7p2B52ogBujLfKif-10" value="" style="group" parent="1" vertex="1" connectable="0">
          <mxGeometry x="1220" y="130" width="350" height="490" as="geometry" />
        </mxCell>
        <mxCell id="5rCYG5Pp4PT8a6XN0o9v-48" value="" style="rounded=0;whiteSpace=wrap;html=1;fillColor=none;" parent="OSTN7p2B52ogBujLfKif-10" vertex="1">
          <mxGeometry width="350" height="490" as="geometry" />
        </mxCell>
        <mxCell id="OSTN7p2B52ogBujLfKif-13" style="edgeStyle=orthogonalEdgeStyle;rounded=0;orthogonalLoop=1;jettySize=auto;html=1;" parent="OSTN7p2B52ogBujLfKif-10" source="5rCYG5Pp4PT8a6XN0o9v-21" target="OSTN7p2B52ogBujLfKif-9" edge="1">
          <mxGeometry relative="1" as="geometry" />
        </mxCell>
        <mxCell id="5rCYG5Pp4PT8a6XN0o9v-21" value="GridObject" style="rounded=1;whiteSpace=wrap;html=1;fillColor=#f8cecc;strokeColor=#b85450;" parent="OSTN7p2B52ogBujLfKif-10" vertex="1">
          <mxGeometry x="180" y="230" width="120" height="60" as="geometry" />
        </mxCell>
        <mxCell id="OSTN7p2B52ogBujLfKif-14" style="edgeStyle=orthogonalEdgeStyle;rounded=0;orthogonalLoop=1;jettySize=auto;html=1;entryX=0.5;entryY=1;entryDx=0;entryDy=0;" parent="OSTN7p2B52ogBujLfKif-10" source="5rCYG5Pp4PT8a6XN0o9v-22" target="OSTN7p2B52ogBujLfKif-9" edge="1">
          <mxGeometry relative="1" as="geometry" />
        </mxCell>
        <mxCell id="5rCYG5Pp4PT8a6XN0o9v-22" value="Grid" style="rounded=1;whiteSpace=wrap;html=1;fillColor=#f8cecc;strokeColor=#b85450;" parent="OSTN7p2B52ogBujLfKif-10" vertex="1">
          <mxGeometry x="180" y="320" width="120" height="60" as="geometry" />
        </mxCell>
        <mxCell id="5rCYG5Pp4PT8a6XN0o9v-23" value="GridUIManager" style="rounded=1;whiteSpace=wrap;html=1;fillColor=#dae8fc;strokeColor=#6c8ebf;" parent="OSTN7p2B52ogBujLfKif-10" vertex="1">
          <mxGeometry x="180" y="410" width="120" height="60" as="geometry" />
        </mxCell>
        <mxCell id="5rCYG5Pp4PT8a6XN0o9v-24" value="GridUI" style="rounded=1;whiteSpace=wrap;html=1;fillColor=#f8cecc;strokeColor=#b85450;" parent="OSTN7p2B52ogBujLfKif-10" vertex="1">
          <mxGeometry x="180" y="140" width="120" height="60" as="geometry" />
        </mxCell>
        <mxCell id="5rCYG5Pp4PT8a6XN0o9v-25" value="GridHighlightType" style="rounded=1;whiteSpace=wrap;html=1;fillColor=#f8cecc;strokeColor=#b85450;" parent="OSTN7p2B52ogBujLfKif-10" vertex="1">
          <mxGeometry x="180" y="40" width="120" height="60" as="geometry" />
        </mxCell>
        <mxCell id="5rCYG5Pp4PT8a6XN0o9v-66" value="&lt;b&gt;&lt;u&gt;&lt;font style=&quot;font-size: 16px;&quot;&gt;Grid&lt;/font&gt;&lt;/u&gt;&lt;/b&gt;" style="text;html=1;strokeColor=none;fillColor=none;align=center;verticalAlign=middle;whiteSpace=wrap;rounded=0;" parent="OSTN7p2B52ogBujLfKif-10" vertex="1">
          <mxGeometry x="90" width="60" height="30" as="geometry" />
        </mxCell>
        <mxCell id="OSTN7p2B52ogBujLfKif-9" value="IGridOccupnetInterface" style="rounded=1;whiteSpace=wrap;html=1;fillColor=#f8cecc;strokeColor=#b85450;" parent="OSTN7p2B52ogBujLfKif-10" vertex="1">
          <mxGeometry x="30" y="230" width="120" height="60" as="geometry" />
        </mxCell>
        <mxCell id="OSTN7p2B52ogBujLfKif-12" style="edgeStyle=orthogonalEdgeStyle;rounded=0;orthogonalLoop=1;jettySize=auto;html=1;entryX=0;entryY=0.5;entryDx=0;entryDy=0;exitX=1.005;exitY=0.392;exitDx=0;exitDy=0;exitPerimeter=0;" parent="1" source="5rCYG5Pp4PT8a6XN0o9v-52" target="OSTN7p2B52ogBujLfKif-9" edge="1">
          <mxGeometry relative="1" as="geometry" />
        </mxCell>
        <mxCell id="tIl48GBWqWobHh1Hrg0F-1" style="edgeStyle=orthogonalEdgeStyle;rounded=0;orthogonalLoop=1;jettySize=auto;html=1;entryX=0.5;entryY=1;entryDx=0;entryDy=0;jumpStyle=arc;" edge="1" parent="1" source="5rCYG5Pp4PT8a6XN0o9v-93" target="5rCYG5Pp4PT8a6XN0o9v-14">
          <mxGeometry relative="1" as="geometry">
            <mxPoint x="70" y="750" as="targetPoint" />
            <Array as="points">
              <mxPoint x="100" y="780" />
              <mxPoint x="20" y="780" />
            </Array>
          </mxGeometry>
        </mxCell>
        <mxCell id="tIl48GBWqWobHh1Hrg0F-2" style="edgeStyle=orthogonalEdgeStyle;rounded=0;orthogonalLoop=1;jettySize=auto;html=1;entryX=0;entryY=0.75;entryDx=0;entryDy=0;jumpStyle=arc;" edge="1" parent="1" source="5rCYG5Pp4PT8a6XN0o9v-92" target="5rCYG5Pp4PT8a6XN0o9v-1">
          <mxGeometry relative="1" as="geometry">
            <Array as="points">
              <mxPoint x="410" y="1030" />
              <mxPoint x="410" y="145" />
            </Array>
          </mxGeometry>
        </mxCell>
        <mxCell id="tIl48GBWqWobHh1Hrg0F-3" style="edgeStyle=orthogonalEdgeStyle;rounded=0;orthogonalLoop=1;jettySize=auto;html=1;entryX=0.5;entryY=1;entryDx=0;entryDy=0;jumpStyle=arc;" edge="1" parent="1" source="5rCYG5Pp4PT8a6XN0o9v-92" target="OSTN7p2B52ogBujLfKif-1">
          <mxGeometry relative="1" as="geometry" />
        </mxCell>
        <mxCell id="tIl48GBWqWobHh1Hrg0F-5" value="CurrencyBank" style="rounded=1;whiteSpace=wrap;html=1;fillColor=#1ba1e2;strokeColor=#006EAF;fontColor=#ffffff;" vertex="1" parent="1">
          <mxGeometry x="350" y="-10" width="120" height="60" as="geometry" />
        </mxCell>
        <mxCell id="tIl48GBWqWobHh1Hrg0F-6" style="edgeStyle=orthogonalEdgeStyle;rounded=0;orthogonalLoop=1;jettySize=auto;html=1;exitX=0.25;exitY=1;exitDx=0;exitDy=0;" edge="1" parent="1" source="5rCYG5Pp4PT8a6XN0o9v-49" target="tIl48GBWqWobHh1Hrg0F-5">
          <mxGeometry relative="1" as="geometry" />
        </mxCell>
        <mxCell id="tIl48GBWqWobHh1Hrg0F-7" style="edgeStyle=orthogonalEdgeStyle;rounded=0;orthogonalLoop=1;jettySize=auto;html=1;entryX=0;entryY=0.5;entryDx=0;entryDy=0;exitX=0.5;exitY=0;exitDx=0;exitDy=0;" edge="1" parent="1" source="M5sFaCqMI3LGULJpn6zM-3" target="tIl48GBWqWobHh1Hrg0F-5">
          <mxGeometry relative="1" as="geometry" />
        </mxCell>
        <mxCell id="tIl48GBWqWobHh1Hrg0F-8" style="edgeStyle=orthogonalEdgeStyle;rounded=0;orthogonalLoop=1;jettySize=auto;html=1;exitX=0.25;exitY=0;exitDx=0;exitDy=0;" edge="1" parent="1" source="5rCYG5Pp4PT8a6XN0o9v-52" target="tIl48GBWqWobHh1Hrg0F-5">
          <mxGeometry relative="1" as="geometry">
            <Array as="points">
              <mxPoint x="-310" y="70" />
              <mxPoint x="400" y="70" />
            </Array>
          </mxGeometry>
        </mxCell>
        <mxCell id="tIl48GBWqWobHh1Hrg0F-11" style="edgeStyle=orthogonalEdgeStyle;rounded=0;orthogonalLoop=1;jettySize=auto;html=1;entryX=0.25;entryY=1;entryDx=0;entryDy=0;exitX=0.75;exitY=1;exitDx=0;exitDy=0;jumpStyle=arc;" edge="1" parent="1" source="5rCYG5Pp4PT8a6XN0o9v-52" target="5rCYG5Pp4PT8a6XN0o9v-7">
          <mxGeometry relative="1" as="geometry">
            <Array as="points">
              <mxPoint x="150" y="930" />
              <mxPoint x="800" y="930" />
            </Array>
          </mxGeometry>
        </mxCell>
        <mxCell id="tIl48GBWqWobHh1Hrg0F-13" value="PlayerPrefs" style="rounded=1;whiteSpace=wrap;html=1;" vertex="1" parent="1">
          <mxGeometry x="930" y="-170" width="120" height="60" as="geometry" />
        </mxCell>
        <mxCell id="tIl48GBWqWobHh1Hrg0F-16" style="edgeStyle=orthogonalEdgeStyle;rounded=0;orthogonalLoop=1;jettySize=auto;html=1;entryX=0;entryY=0.5;entryDx=0;entryDy=0;exitX=1;exitY=0.75;exitDx=0;exitDy=0;" edge="1" parent="1" source="5rCYG5Pp4PT8a6XN0o9v-49" target="tIl48GBWqWobHh1Hrg0F-13">
          <mxGeometry relative="1" as="geometry" />
        </mxCell>
        <mxCell id="tIl48GBWqWobHh1Hrg0F-17" value="AudioManager (SIngleton)" style="rounded=1;whiteSpace=wrap;html=1;fillColor=#d80073;strokeColor=#A50040;fontColor=#ffffff;" vertex="1" parent="1">
          <mxGeometry x="-90" y="-270" width="120" height="60" as="geometry" />
        </mxCell>
        <mxCell id="tIl48GBWqWobHh1Hrg0F-18" style="edgeStyle=orthogonalEdgeStyle;rounded=0;orthogonalLoop=1;jettySize=auto;html=1;entryX=1;entryY=0.5;entryDx=0;entryDy=0;" edge="1" parent="1" source="5rCYG5Pp4PT8a6XN0o9v-49" target="tIl48GBWqWobHh1Hrg0F-17">
          <mxGeometry relative="1" as="geometry" />
        </mxCell>
        <mxCell id="tIl48GBWqWobHh1Hrg0F-19" style="edgeStyle=orthogonalEdgeStyle;rounded=0;orthogonalLoop=1;jettySize=auto;html=1;entryX=0.5;entryY=1;entryDx=0;entryDy=0;exitX=0.25;exitY=0;exitDx=0;exitDy=0;jumpStyle=arc;" edge="1" parent="1" source="5rCYG5Pp4PT8a6XN0o9v-52" target="tIl48GBWqWobHh1Hrg0F-17">
          <mxGeometry relative="1" as="geometry" />
        </mxCell>
        <mxCell id="tIl48GBWqWobHh1Hrg0F-21" value="AdsManager" style="rounded=1;whiteSpace=wrap;html=1;fillColor=#6a00ff;fontColor=#ffffff;strokeColor=#3700CC;" vertex="1" parent="1">
          <mxGeometry x="930" y="-380" width="120" height="60" as="geometry" />
        </mxCell>
        <mxCell id="tIl48GBWqWobHh1Hrg0F-24" style="edgeStyle=orthogonalEdgeStyle;rounded=0;orthogonalLoop=1;jettySize=auto;html=1;entryX=0.25;entryY=0;entryDx=0;entryDy=0;exitX=0;exitY=0.25;exitDx=0;exitDy=0;" edge="1" parent="1" source="5rCYG5Pp4PT8a6XN0o9v-49" target="M5sFaCqMI3LGULJpn6zM-3">
          <mxGeometry relative="1" as="geometry" />
        </mxCell>
      </root>
    </mxGraphModel>
  </diagram>
</mxfile>
